{"title":"The Raid 2: Berandal (2014) Dual Audio BDRip 720p MKV (H.264)","uid":10402331,"size":6653052822,"categoryP":"video","categoryS":"hd___movies","magnet":"?xt=urn:btih:ed53b63cf5c14ed6f81d36582c6202f0927b427a&amp;dn=The+Raid+2%3A+Berandal+%282014%29+Dual+Audio+BDRip+720p+MKV+%28H.264%29&amp;tr=udp%3A%2F%2Ftracker.openbittorrent.com%3A80&amp;tr=udp%3A%2F%2Fopen.demonii.com%3A1337&amp;tr=udp%3A%2F%2Ftracker.coppersurfer.tk%3A6969&amp;tr=udp%3A%2F%2Fexodus.desync.com%3A6969","seeders":3,"leechers":1,"uploader":"darkj6","files":-1,"time":1403386418,"description":" ______   _______  ______    ___   _      ___  --------|\n|      | |   _   ||    _ |  |   | | |    |   ||   |----|    \n|  _    ||  |_|  ||   | ||  |   |_| |    |   ||   |___ \n| | |   ||       ||   |_||_ |      _|    |   ||    _  |\n| |_|   ||       ||    __  ||     |_  ___|   ||   | | |\n|       ||   _   ||   |  | ||    _  ||       ||   |_| |\n|______| |__| |__||___|  |_||___| |_||_______||_______|\n\nThe Raid 2 (2014) \n&quot;The Raid 2: Berandal&quot; (original title)\n\n &lt;a href=&quot;\nhttp://www.imdb.com/title/tt2265171/&quot; rel=&quot;nofollow&quot; target=&quot;_NEW&quot;&gt;\nhttp://www.imdb.com/title/tt2265171/&lt;/a&gt;\n\nIssued: Indonesia, Pt. Merantau Films, XYZ Films \n\nLength: 2:30:28 Translation: Dubbed | Sound with TS \n\nFile Format : MKV (H.264) \n\n\nQuality: BDRip 720p \n\n\nVideo: MPEG4 Video (H264) 1280x536 23.976fps, 4257 Kbps \n\n\nAudio: Russian: MP3, 128 kb / s (2 ch) 44100Hz \n\n\n English: DTS, 1509 kb / s (6 ch) 48000Hz \n\n\nSubtitles: English (Forced)\n\n\n\n\n\n\n\n\nVideo \nID: 1 \nFormat: AVC \nFormat / Info: Advanced Video Codec \nFormat profile: &lt;a class=&quot;__cf_email__&quot; href=&quot;/cdn-cgi/l/email-protection&quot; data-cfemail=&quot;165e7f717e565a223827&quot;&gt;[email&amp;#160;protected]&lt;/a&gt;&lt;script cf-hash='f9e31' type=&quot;text/javascript&quot;&gt;\n/* &lt;![CDATA[ */!function(){try{var t=&quot;currentScript&quot;in document?document.currentScript:function(){for(var t=document.getElementsByTagName(&quot;script&quot;),e=t.length;e--;)if(t[e].getAttribute(&quot;cf-hash&quot;))return t[e]}();if(t&amp;&amp;t.previousSibling){var e,r,n,i,c=t.previousSibling,a=c.getAttribute(&quot;data-cfemail&quot;);if(a){for(e=&quot;&quot;,r=parseInt(a.substr(0,2),16),n=2;a.length-n;n+=2)i=parseInt(a.substr(n,2),16)^r,e+=String.fromCharCode(i);e=document.createTextNode(e),c.parentNode.replaceChild(e,c)}}}catch(u){}}();/* ]]&gt; */&lt;/script&gt; \nFormat settings, CABAC: Yes \nFormat settings, ReFrames: 5 frames \nCodec ID: V_MPEG4/ISO/AVC \nDuration: 2h 30mn \nBit rate: 4257 Kbps \nWidth: 1280 pixels \nHeight: 536 pixels \nDisplay aspect ratio: 2.40:1 \nFrame rate mode: Constant \nFrame rate: 23.976 fps \nColor space: YUV \nChroma subsampling: 4:2:0 \nBit depth: 8 bits \nScan type: Progressive \nBits / (Pixel * Frame): 0.259 \nStream size: 4.35 GiB (70%) \nWriting library: x264 core 142 r2431 ac76440 \nEncoding settings: cabac = 1 / ref = 5 / deblock = 1:0:0 / analyse = 0x3: 0x133 / me = umh / subme = 7 / psy = 1 / psy_rd = 1.00:0.00 / mixed_ref = 1 / me_range = 16 / chroma_me = 1 / trellis = 1 / 8x8dct = 1 / cqm = 0 / deadzone = 21,11 / fast_pskip = 0 / chroma_qp_offset = -2 / threads = 18 / lookahead_threads = 3 / sliced_threads = 0 / nr = 0 / decimate = 1 / interlaced = 0 / bluray_compat = 0 / constrained_intra = 0 / bframes = 3 / b_pyramid = 2 / b_adapt = 1 / b_bias = 0 / direct = 1 / weightb = 1 / open_gop = 0 / weightp = 2 / keyint = 250 / keyint_min = 23 / scenecut = 40 / intra_refresh = 0 / rc_lookahead = 40 / rc = 2pass / mbtree = 1 / bitrate = 4257 / ratetol = 1.0 / qcomp = 0.60 / qpmin = 0 / qpmax = 69 / qpstep = 4 / cplxblur = 20.0 / qblur = 0.5 / ip_ratio = 1.40 / aq = 1:1.00 \nLanguage: Indonesian \nDefault: Yes \nForced: No \n\nAudio # 1 \nID: 2 \nFormat: MPEG Audio \nFormat version: Version 1 \nFormat profile: Layer 3 \nCodec ID: A_MPEG/L3 \nCodec ID / Hint: MP3 \nDuration: 2h 30mn \nBit rate mode: Constant \nBit rate: 128 Kbps \nChannel count: 2 channels \nSampling rate: 44.1 KHz \nCompression mode: Lossy \nStream size: 138 MiB (2%) \nLanguage: Russian \nDefault: Yes \nForced: No \n\nAudio # 2 \nID: 3 \nFormat: DTS \nFormat / Info: Digital Theater Systems \nMode: 16 \nFormat settings, Endianness: Big \nCodec ID: A_DTS \nDuration: 2h 30mn \nBit rate mode: Constant \nBit rate: 1 509 Kbps \nChannel count: 6 channels \nChannel positions: Front: L C R, Side: L R, LFE \nSampling rate: 48.0 KHz \nBit depth: 24 bits \nCompression mode: Lossy \nStream size: 1.59 GiB (26%) \nLanguage: English \nDefault: No \nForced: No \n\nText \nID: 4 \nFormat: UTF-8 \nCodec ID: S_TEXT/UTF8 \nCodec ID / Info: UTF-8 Plain Text \nTitle: English-Forced \nLanguage: English \nDefault: Yes \nForced: Yes \n\nMenu \n00:00:00.000: en: 00:00:00.000 \n00:08:02.315: en: 00:08:02.315 \n00:14:03.217: en: 00:14:03.217 \n00:21:08.893: en: 00:21:08.893 \n00:31:45.487: en: 00:31:45.487 \n00:42:22.123: en: 00:42:22.123 \n00:50:55.177: en: 00:50:55.177 \n01:01:58.423: en: 01:01:58.423 \n01:11:49.764: en: 01:11:49.764 \n01:24:47.165: en: 01:24:47.165 \n01:36:31.995: en: 01:36:31.995 \n01:44:18.752: en: 01:44:18.752 \n01:48:31.714: en: 01:48:31.714 \n01:57:20.283: en: 01:57:20.283 \n02:05:59.093: en: 02:05:59.093 \n02:20:02.894: en: 02:20:02.894","torrent":{"xt":"urn:btih:ed53b63cf5c14ed6f81d36582c6202f0927b427a","amp;dn":"The+Raid+2%3A+Berandal+%282014%29+Dual+Audio+BDRip+720p+MKV+%28H.264%29","amp;tr":["udp%3A%2F%2Ftracker.openbittorrent.com%3A80","udp%3A%2F%2Fopen.demonii.com%3A1337","udp%3A%2F%2Ftracker.coppersurfer.tk%3A6969","udp%3A%2F%2Fexodus.desync.com%3A6969"],"infoHash":"ed53b63cf5c14ed6f81d36582c6202f0927b427a","infoHashBuffer":{"type":"Buffer","data":[237,83,182,60,245,193,78,214,248,29,54,88,44,98,2,240,146,123,66,122]},"announce":[],"urlList":[]}}